<mxfile host="app.diagrams.net" modified="2022-06-18T08:45:24.995Z" agent="5.0 (Macintosh; Intel Mac OS X 10_15_7) AppleWebKit/537.36 (KHTML, like Gecko) Chrome/102.0.0.0 Safari/537.36" etag="4ApNCevWvq9wjt_W6YYo" version="20.0.1" type="github">
  <diagram id="J4kVdCjD3ESPhV0laQYD" name="Page-1">
    <mxGraphModel dx="2052" dy="1028" grid="1" gridSize="10" guides="1" tooltips="1" connect="1" arrows="1" fold="1" page="1" pageScale="1" pageWidth="1500" pageHeight="800" math="0" shadow="0">
      <root>
        <mxCell id="0" />
        <mxCell id="1" parent="0" />
        <mxCell id="25KSc2TjV2gcIhLW8g-A-27" value="" style="rounded=0;whiteSpace=wrap;html=1;fontFamily=Courier New;fontSize=50;" vertex="1" parent="1">
          <mxGeometry x="30" y="120" width="1420" height="470" as="geometry" />
        </mxCell>
        <mxCell id="25KSc2TjV2gcIhLW8g-A-1" value="" style="rounded=0;whiteSpace=wrap;html=1;" vertex="1" parent="1">
          <mxGeometry x="1090" y="200" width="240" height="80" as="geometry" />
        </mxCell>
        <mxCell id="25KSc2TjV2gcIhLW8g-A-2" value="&lt;font style=&quot;font-size: 50px;&quot;&gt;uClassify&lt;/font&gt;" style="text;html=1;strokeColor=none;fillColor=none;align=center;verticalAlign=middle;whiteSpace=wrap;rounded=0;" vertex="1" parent="1">
          <mxGeometry x="1180" y="225" width="60" height="30" as="geometry" />
        </mxCell>
        <mxCell id="25KSc2TjV2gcIhLW8g-A-3" value="" style="rounded=0;whiteSpace=wrap;html=1;" vertex="1" parent="1">
          <mxGeometry x="1090" y="440" width="240" height="80" as="geometry" />
        </mxCell>
        <mxCell id="25KSc2TjV2gcIhLW8g-A-4" value="&lt;font style=&quot;font-size: 50px;&quot;&gt;Readable&lt;/font&gt;" style="text;html=1;strokeColor=none;fillColor=none;align=center;verticalAlign=middle;whiteSpace=wrap;rounded=0;" vertex="1" parent="1">
          <mxGeometry x="1180" y="465" width="60" height="30" as="geometry" />
        </mxCell>
        <mxCell id="25KSc2TjV2gcIhLW8g-A-6" value="" style="rounded=0;whiteSpace=wrap;html=1;" vertex="1" parent="1">
          <mxGeometry x="703" y="320" width="350" height="80" as="geometry" />
        </mxCell>
        <mxCell id="25KSc2TjV2gcIhLW8g-A-7" value="&lt;font style=&quot;font-size: 50px;&quot;&gt;Data Cleaning&lt;/font&gt;" style="text;html=1;strokeColor=none;fillColor=none;align=center;verticalAlign=middle;whiteSpace=wrap;rounded=0;" vertex="1" parent="1">
          <mxGeometry x="713" y="345" width="340" height="30" as="geometry" />
        </mxCell>
        <mxCell id="25KSc2TjV2gcIhLW8g-A-8" value="" style="endArrow=classic;html=1;rounded=0;fontSize=50;entryX=0;entryY=0.5;entryDx=0;entryDy=0;exitX=0.856;exitY=0.004;exitDx=0;exitDy=0;exitPerimeter=0;" edge="1" parent="1" source="25KSc2TjV2gcIhLW8g-A-6" target="25KSc2TjV2gcIhLW8g-A-1">
          <mxGeometry width="50" height="50" relative="1" as="geometry">
            <mxPoint x="890" y="310" as="sourcePoint" />
            <mxPoint x="830" y="260" as="targetPoint" />
            <Array as="points">
              <mxPoint x="1003" y="240" />
            </Array>
          </mxGeometry>
        </mxCell>
        <mxCell id="25KSc2TjV2gcIhLW8g-A-10" value="" style="endArrow=classic;html=1;rounded=0;fontSize=50;exitX=0.858;exitY=1.008;exitDx=0;exitDy=0;exitPerimeter=0;entryX=-0.013;entryY=0.508;entryDx=0;entryDy=0;entryPerimeter=0;" edge="1" parent="1" source="25KSc2TjV2gcIhLW8g-A-6" target="25KSc2TjV2gcIhLW8g-A-3">
          <mxGeometry width="50" height="50" relative="1" as="geometry">
            <mxPoint x="940" y="400" as="sourcePoint" />
            <mxPoint x="990" y="350" as="targetPoint" />
            <Array as="points">
              <mxPoint x="1003" y="480" />
            </Array>
          </mxGeometry>
        </mxCell>
        <mxCell id="25KSc2TjV2gcIhLW8g-A-11" value="" style="aspect=fixed;html=1;points=[];align=center;image;fontSize=12;image=img/lib/azure2/general/Files.svg;" vertex="1" parent="1">
          <mxGeometry x="1370" y="205" width="64" height="70" as="geometry" />
        </mxCell>
        <mxCell id="25KSc2TjV2gcIhLW8g-A-12" value="" style="aspect=fixed;html=1;points=[];align=center;image;fontSize=12;image=img/lib/azure2/general/Files.svg;" vertex="1" parent="1">
          <mxGeometry x="1370" y="445" width="64" height="70" as="geometry" />
        </mxCell>
        <mxCell id="25KSc2TjV2gcIhLW8g-A-13" value="" style="endArrow=classic;html=1;rounded=0;fontSize=50;entryX=-0.02;entryY=0.497;entryDx=0;entryDy=0;entryPerimeter=0;exitX=1;exitY=0.5;exitDx=0;exitDy=0;" edge="1" parent="1" source="25KSc2TjV2gcIhLW8g-A-1" target="25KSc2TjV2gcIhLW8g-A-11">
          <mxGeometry width="50" height="50" relative="1" as="geometry">
            <mxPoint x="1070" y="390" as="sourcePoint" />
            <mxPoint x="1120" y="340" as="targetPoint" />
          </mxGeometry>
        </mxCell>
        <mxCell id="25KSc2TjV2gcIhLW8g-A-14" value="" style="endArrow=classic;html=1;rounded=0;fontSize=50;entryX=-0.02;entryY=0.497;entryDx=0;entryDy=0;entryPerimeter=0;exitX=1;exitY=0.5;exitDx=0;exitDy=0;" edge="1" parent="1">
          <mxGeometry width="50" height="50" relative="1" as="geometry">
            <mxPoint x="1329" y="480" as="sourcePoint" />
            <mxPoint x="1367.72" y="479.78999999999996" as="targetPoint" />
          </mxGeometry>
        </mxCell>
        <mxCell id="25KSc2TjV2gcIhLW8g-A-15" value="" style="rounded=0;whiteSpace=wrap;html=1;" vertex="1" parent="1">
          <mxGeometry x="303" y="320" width="350" height="80" as="geometry" />
        </mxCell>
        <mxCell id="25KSc2TjV2gcIhLW8g-A-16" value="&lt;font style=&quot;font-size: 50px;&quot;&gt;Data Collection&lt;/font&gt;" style="text;html=1;strokeColor=none;fillColor=none;align=center;verticalAlign=middle;whiteSpace=wrap;rounded=0;" vertex="1" parent="1">
          <mxGeometry x="297" y="345" width="363" height="30" as="geometry" />
        </mxCell>
        <mxCell id="25KSc2TjV2gcIhLW8g-A-17" value="" style="endArrow=classic;html=1;rounded=0;fontSize=50;entryX=-0.002;entryY=0.498;entryDx=0;entryDy=0;entryPerimeter=0;" edge="1" parent="1" target="25KSc2TjV2gcIhLW8g-A-6">
          <mxGeometry width="50" height="50" relative="1" as="geometry">
            <mxPoint x="653" y="360" as="sourcePoint" />
            <mxPoint x="700" y="360" as="targetPoint" />
          </mxGeometry>
        </mxCell>
        <mxCell id="25KSc2TjV2gcIhLW8g-A-18" value="" style="whiteSpace=wrap;html=1;aspect=fixed;fontSize=50;" vertex="1" parent="1">
          <mxGeometry x="60" y="247.5" width="222.5" height="222.5" as="geometry" />
        </mxCell>
        <mxCell id="25KSc2TjV2gcIhLW8g-A-19" value="Pushshift&lt;br&gt;API" style="text;html=1;strokeColor=none;fillColor=none;align=center;verticalAlign=middle;whiteSpace=wrap;rounded=0;fontSize=50;" vertex="1" parent="1">
          <mxGeometry x="137.5" y="345" width="60" height="30" as="geometry" />
        </mxCell>
        <mxCell id="25KSc2TjV2gcIhLW8g-A-23" value="" style="endArrow=classic;startArrow=classic;html=1;rounded=0;fontSize=50;exitX=0.25;exitY=0;exitDx=0;exitDy=0;entryX=0.496;entryY=-0.003;entryDx=0;entryDy=0;entryPerimeter=0;" edge="1" parent="1" source="25KSc2TjV2gcIhLW8g-A-15" target="25KSc2TjV2gcIhLW8g-A-18">
          <mxGeometry width="50" height="50" relative="1" as="geometry">
            <mxPoint x="910" y="360" as="sourcePoint" />
            <mxPoint x="330" y="208.4" as="targetPoint" />
            <Array as="points">
              <mxPoint x="390" y="200" />
              <mxPoint x="170" y="200" />
            </Array>
          </mxGeometry>
        </mxCell>
        <mxCell id="25KSc2TjV2gcIhLW8g-A-24" value="" style="endArrow=classic;startArrow=classic;html=1;rounded=0;fontSize=50;" edge="1" parent="1">
          <mxGeometry width="50" height="50" relative="1" as="geometry">
            <mxPoint x="170" y="470" as="sourcePoint" />
            <mxPoint x="390" y="400" as="targetPoint" />
            <Array as="points">
              <mxPoint x="170" y="520" />
              <mxPoint x="390" y="520" />
            </Array>
          </mxGeometry>
        </mxCell>
        <mxCell id="25KSc2TjV2gcIhLW8g-A-25" value="&lt;font face=&quot;Courier New&quot;&gt;&lt;b&gt;GET Posts&lt;/b&gt;&lt;/font&gt;" style="text;html=1;strokeColor=none;fillColor=none;align=center;verticalAlign=middle;whiteSpace=wrap;rounded=0;fontSize=50;" vertex="1" parent="1">
          <mxGeometry x="110" y="150" width="330" height="30" as="geometry" />
        </mxCell>
        <mxCell id="25KSc2TjV2gcIhLW8g-A-26" value="&lt;font face=&quot;Courier New&quot;&gt;&lt;b&gt;GET Comments&lt;/b&gt;&lt;/font&gt;" style="text;html=1;strokeColor=none;fillColor=none;align=center;verticalAlign=middle;whiteSpace=wrap;rounded=0;fontSize=50;" vertex="1" parent="1">
          <mxGeometry x="90" y="540" width="410" height="30" as="geometry" />
        </mxCell>
      </root>
    </mxGraphModel>
  </diagram>
</mxfile>
